<?xml version="1.0" encoding="utf-8"?>
<!-- Generator: Adobe Illustrator 21.0.0, SVG Export Plug-In . SVG Version: 6.00 Build 0)  -->
<svg version="1.1" id="Layer_1" xmlns="http://www.w3.org/2000/svg" xmlns:xlink="http://www.w3.org/1999/xlink" x="0px" y="0px"
	 viewBox="0 0 10 10" style="enable-background:new 0 0 10 10;" xml:space="preserve">
<style type="text/css">
	.st0{fill:#222222;}
</style>
<g transform="translate(0,-952.36218)">
	<g transform="translate(5,957.36218)">
		<path class="st0" d="M0-5c-2.7,0-5,2.2-5,5s2.2,5,5,5s5-2.2,5-5S2.7-5,0-5z M-0.3-4.2V-3h-1.2c0-0.1,0-0.1,0.1-0.1
			C-1.1-3.7-0.7-4.1-0.3-4.2z M0.3-4.2c0.4,0.1,0.8,0.5,1.1,1.1c0,0,0,0.1,0.1,0.1H0.3V-4.2z M-1.7-4C-1.8-3.8-1.9-3.6-2-3.4
			C-2.1-3.3-2.2-3.1-2.2-3h-0.9C-2.7-3.4-2.2-3.7-1.7-4z M1.7-4c0.5,0.2,1,0.6,1.4,1H2.2C2.2-3.1,2.1-3.3,2-3.4
			C1.9-3.6,1.8-3.8,1.7-4z M-3.6-2.3h1.2C-2.6-2-2.6-1.6-2.7-1.2h-1.5C-4-1.6-3.8-2-3.6-2.3z M-1.8-2.3h1.4v1.1H-2
			C-2-1.6-1.9-2-1.8-2.3z M0.3-2.3h1.4C1.9-2,2-1.6,2-1.2H0.3C0.3-1.2,0.3-2.3,0.3-2.3z M2.5-2.3h1.2C3.8-2,4-1.6,4.1-1.2H2.7
			C2.6-1.6,2.6-2,2.5-2.3z M-4.3-0.6h1.5c0,0.2,0,0.4,0,0.6s0,0.4,0,0.6h-1.5c0-0.2,0-0.4,0-0.6S-4.3-0.4-4.3-0.6z M-2.1-0.6h1.7
			v1.1h-1.7c0-0.2,0-0.4,0-0.6S-2.1-0.4-2.1-0.6z M0.3-0.6h1.7c0,0.2,0,0.4,0,0.6s0,0.4,0,0.6H0.3V-0.6z M2.7-0.6h1.5
			c0,0.2,0,0.4,0,0.6s0,0.4,0,0.6H2.7c0-0.2,0-0.4,0-0.6S2.7-0.4,2.7-0.6z M-4.1,1.2h1.5C-2.6,1.6-2.5,2-2.4,2.3h-1.2
			C-3.8,2-4,1.6-4.1,1.2z M-2,1.2h1.7v1.1h-1.4C-1.9,2-2,1.6-2,1.2z M0.3,1.2H2C2,1.6,1.9,2,1.8,2.3H0.3V1.2z M2.7,1.2h1.5
			C4,1.6,3.8,2,3.6,2.3H2.4C2.5,2,2.6,1.6,2.7,1.2z M-3.1,3h0.9C-2.2,3.1-2.1,3.3-2,3.4C-1.9,3.6-1.8,3.8-1.7,4
			C-2.2,3.7-2.7,3.4-3.1,3z M-1.5,3h1.2v1.3c-0.4-0.1-0.8-0.5-1.1-1.1C-1.5,3.1-1.5,3-1.5,3z M0.3,3h1.2c0,0.1,0,0.1-0.1,0.1
			c-0.3,0.6-0.7,1-1.1,1.1C0.3,4.2,0.3,3,0.3,3z M2.2,3h0.9C2.7,3.4,2.2,3.7,1.7,4C1.8,3.8,1.9,3.6,2,3.4C2.1,3.3,2.2,3.1,2.2,3z"/>
	</g>
</g>
</svg>
