<?xml version="1.0" encoding="utf-8"?>
<!-- Generator: Adobe Illustrator 21.0.0, SVG Export Plug-In . SVG Version: 6.00 Build 0)  -->
<svg version="1.1" id="Layer_1" xmlns="http://www.w3.org/2000/svg" xmlns:xlink="http://www.w3.org/1999/xlink" x="0px" y="0px"
	 viewBox="0 0 10 10" style="enable-background:new 0 0 10 10;" xml:space="preserve">
<style type="text/css">
	.st0{fill:#222222;}
	.st1{fill:#FFFFFF;}
</style>
<g>
	<path class="st0" d="M5,0.1C2.3,0.1,0.1,2.3,0.1,5S2.3,9.9,5,9.9S9.9,7.7,9.9,5S7.7,0.1,5,0.1z M8.1,5.6L5.5,5.3v0l1.7,2.1L6,8
		L5,5.6h0L3.8,8l-1-0.6l1.7-2.1v0L1.9,5.6V4.4l2.6,0.3v0L2.8,2.6L3.9,2L5,4.4h0l1.1-2.4l1,0.6L5.5,4.7v0l2.6-0.3V5.6z"/>
	<polygon class="st1" points="5.5,4.7 7.1,2.5 6.1,1.9 5,4.4 5,4.4 3.9,2 2.8,2.6 4.5,4.7 4.5,4.7 1.9,4.4 1.9,5.6 4.5,5.2 4.5,5.3 
		2.8,7.4 3.8,8 5,5.6 5,5.6 6,8 7.1,7.4 5.5,5.3 5.5,5.3 8.1,5.6 8.1,4.4 5.5,4.7 	"/>
</g>
</svg>
