<?xml version="1.0" encoding="utf-8"?>
<!-- Generator: Adobe Illustrator 21.0.0, SVG Export Plug-In . SVG Version: 6.00 Build 0)  -->
<svg version="1.1" id="Layer_1" xmlns="http://www.w3.org/2000/svg" xmlns:xlink="http://www.w3.org/1999/xlink" x="0px" y="0px"
	 viewBox="0 0 10 10" style="enable-background:new 0 0 10 10;" xml:space="preserve">
<style type="text/css">
	.st0{fill:#222222;}
</style>
<path class="st0" d="M3.6,7L1.4,8.4C2,9,2.7,9.5,3.6,9.7V7 M6.5,7v2.7c0.9-0.3,1.6-0.8,2.2-1.4L6.5,7 M1,6.5H0.3
	c0,0.1,0.1,0.2,0.1,0.3L1,6.5 M3.6,6.5H2.5l-1.7,1C0.9,7.7,1,7.9,1.1,8L3.6,6.5L3.6,6.5 M8.5,6.5H7.4l1.8,1.1
	c0.1-0.2,0.2-0.3,0.3-0.5L8.5,6.5 M9.7,6.5H9.2l0.4,0.2C9.6,6.7,9.7,6.6,9.7,6.5 M9.7,3.4L9.2,3.6h0.5C9.7,3.6,9.7,3.5,9.7,3.4
	 M0.4,3.3c0,0.1-0.1,0.2-0.1,0.3h0.7L0.4,3.3 M0.8,2.5C0.7,2.6,0.6,2.8,0.5,3l1.1,0.7h1.1L0.8,2.5 M9,2.2L6.5,3.6h1.1l1.7-1
	C9.2,2.5,9.1,2.3,9,2.2 M6.5,0.3v2.9l2.3-1.4C8.2,1.1,7.4,0.6,6.5,0.3 M3.6,0.3C2.7,0.5,1.9,1.1,1.3,1.8l2.3,1.4V0.3 M5,0.1
	c-0.3,0-0.5,0-0.8,0.1v4.1H0.1c0,0.2-0.1,0.5-0.1,0.8c0,0.3,0,0.6,0.1,1h4.1v3.9c0.3,0,0.5,0.1,0.8,0.1c0.3,0,0.6,0,0.9-0.1V6h0.5
	h3.4c0.1-0.3,0.1-0.6,0.1-1c0-0.3,0-0.5-0.1-0.8H5.9V0.2C5.6,0.1,5.3,0.1,5,0.1"/>
</svg>
