<?xml version="1.0" encoding="utf-8"?>
<!-- Generator: Adobe Illustrator 21.0.0, SVG Export Plug-In . SVG Version: 6.00 Build 0)  -->
<svg version="1.1" id="Layer_1" xmlns="http://www.w3.org/2000/svg" xmlns:xlink="http://www.w3.org/1999/xlink" x="0px" y="0px"
	 viewBox="0 0 10 10" style="enable-background:new 0 0 10 10;" xml:space="preserve">
<style type="text/css">
	.st0{fill:#222222;}
</style>
<path class="st0" d="M7.6,9.2H2.4C3.2,9.7,4,9.9,5,9.9C6,9.9,6.8,9.7,7.6,9.2 M9.1,7.7H0.9C1,7.9,1.2,8.2,1.5,8.4h7.1
	C8.8,8.2,9,7.9,9.1,7.7 M9.8,6.1H0.2c0.1,0.3,0.1,0.5,0.2,0.8h9.1C9.6,6.7,9.7,6.4,9.8,6.1 M0.6,4.6V3.9h0.8v0.8H0.6 M2.1,4.6V3.9
	h0.8v0.8H2.1 M3.6,4.6V3.9h0.8v0.8H3.6 M2.1,3.1V2.3h0.8v0.8H2.1 M3.6,3.1V2.3h0.8v0.8H3.6 M3.6,1.6V0.8h0.8v0.8H3.6 M5,0.1
	c-1,0-1.8,0.3-2.6,0.7h0.5v0.8H2.1V1C1.6,1.4,1.2,1.8,0.9,2.3h0.5v0.8H0.6V2.8C0.3,3.5,0.1,4.2,0.1,5c0,0.1,0,0.3,0,0.4h9.8
	c0-0.1,0-0.3,0-0.4c0-0.1,0-0.3,0-0.4H5.2V3.9h4.6C9.7,3.6,9.6,3.3,9.5,3.1H5.2V2.3h4C9,2.1,8.8,1.8,8.5,1.6H5.2V0.8h2.4
	C6.8,0.3,6,0.1,5,0.1"/>
</svg>
